<svg xmlns="http://www.w3.org/2000/svg" viewBox="0 0 64 64" role="img" aria-label="RouteLab">
  <defs>
    <linearGradient id="mark" x1="8" y1="6" x2="56" y2="58" gradientUnits="userSpaceOnUse">
      <stop offset="0" stop-color="#b7ff6d" />
      <stop offset="0.58" stop-color="#55ef7e" />
      <stop offset="1" stop-color="#24c96f" />
    </linearGradient>
    <filter id="glow" x="-30%" y="-30%" width="160%" height="160%">
      <feDropShadow dx="0" dy="0" stdDeviation="3" flood-color="#58f084" flood-opacity=".45" />
    </filter>
  </defs>
  <rect width="64" height="64" rx="18" fill="#06100b" />
  <rect x="7" y="7" width="50" height="50" rx="14" fill="url(#mark)" filter="url(#glow)" />
  <path d="M20 43V19h15.2c5.7 0 9.3 3.1 9.3 8 0 3.4-1.8 5.9-5 7.1l6.2 8.9h-8.2l-5.1-7.8h-5.2V43H20Zm7.2-13.6h7.2c1.9 0 3-1 3-2.6 0-1.7-1.1-2.6-3-2.6h-7.2v5.2Z" fill="#06100b" />
  <path d="M19 49h26" stroke="#06100b" stroke-width="4" stroke-linecap="round" opacity=".45" />
</svg>
